<?xml version="1.0" encoding="UTF-8"?>
<svg id="Layer_1" xmlns="http://www.w3.org/2000/svg"
    xmlns:xlink="http://www.w3.org/1999/xlink" viewBox="0 0 392.77 168.03">
    <defs>
        <style>
            .cls-1 {
                fill: url(#linear-gradient);
            }

            .cls-2 {
                fill: #08085b;
            }
        </style>
        <linearGradient id="linear-gradient" x1="-750.15" y1="-279.25" x2="-750.15" y2="-355.47"
            gradientTransform="translate(882.78 446.69) scale(1.08)" gradientUnits="userSpaceOnUse">
            <stop offset="0" stop-color="#e84660" />
            <stop offset="1" stop-color="#ec6e83" />
        </linearGradient>
    </defs>
    <path id="CYBER_SKILLS_LIVE" class="cls-2"
        d="m225.26,46.14v-9.47c-3.45,2.38-6.58,3.8-10.86,3.8-7.33,0-13.63-5.55-13.63-13.87s6.3-13.79,13.63-13.79c4.28,0,7.41,1.27,10.86,3.57V7.07c-3.65-1.94-7.69-2.97-11.85-2.93-11.97,0-22.15,8.95-22.15,22.51s10.22,22.51,22.15,22.51c4.16.04,8.24-.99,11.85-3.01Zm19.46,2.02h9.35v-17.2l15.89-25.87h-10.03l-10.14,17.47h-.16l-10.34-17.43h-10.58l15.97,25.91v17.12h.04Zm55.99-22.11c3.65-1.51,6.34-4.56,6.34-9.39,0-6.42-5.15-11.53-14.9-11.53h-16.09v43.07h16.8c10.38,0,15.33-5.59,15.33-12.05,0-4.83-2.65-8.48-7.49-10.1h0Zm-15.29-12.96h6.58c4,0,6.18,2.06,6.18,4.91s-2.14,5.03-6.34,5.03h-6.42v-9.95h0Zm6.74,27.1h-6.74v-10.54h6.93c4.04,0,6.7,2.06,6.7,5.27s-2.38,5.27-6.89,5.27h0Zm24.53,7.96h27.02v-8.4h-17.59v-9.43h16.09v-7.77h-16.09v-8.96h17.59V5.13h-27.02v43.03h0Zm55.95-15.93c8.24-2.14,10.98-7.96,10.98-13.12,0-8.99-6.46-14.03-16.84-14.03h-13.63v43.07h9.39v-15.1h.4l11.41,15.14h11.33l-13.04-15.97Zm-10.1-6.46v-12.05h4c4.68,0,7.61,2.06,7.61,5.98s-2.69,6.06-7.81,6.06h-3.8Zm-155.13,36.14c-9.27,0-15.22,5.35-15.22,12.88s6.34,10.5,11.65,12.68c4.68,1.9,7.69,3.29,7.69,6.18s-2.81,4.91-7.09,4.91-9.11-2.02-12.13-4.72v9.11c2.89,2.14,7.69,3.88,13.04,3.88,9.51,0,15.81-5.43,15.81-13.51s-6.7-10.9-12.8-13.31c-4.52-1.86-6.85-3.01-6.85-5.55,0-2.69,2.65-4.2,6.46-4.2,3.57,0,7.85,1.27,10.66,3.29v-8.64c-3.45-2.02-7.29-3.01-11.21-3.01h0Zm58.96,43.98l-17.55-21.83,17.2-21.24h-11.02l-16.09,20.21v-20.21h-9.39v43.07h9.39v-20.49l16.21,20.49h11.25Zm5.9,0h9.39v-43.07h-9.39v43.07h0Zm20.21,0h27.26v-8.56h-17.83v-34.51h-9.39v43.07h-.04Zm34.51,0h27.26v-8.56h-17.83v-34.51h-9.39v43.07h-.04Zm48.02-43.98c-9.27,0-15.26,5.35-15.26,12.88s6.34,10.5,11.65,12.68c4.68,1.9,7.69,3.29,7.69,6.18s-2.81,4.91-7.09,4.91-9.11-2.02-12.12-4.72v9.11c2.89,2.14,7.69,3.88,13.04,3.88,9.51,0,15.81-5.43,15.81-13.51s-6.7-10.9-12.8-13.31c-4.52-1.86-6.85-3.01-6.85-5.55,0-2.69,2.65-4.2,6.46-4.2,3.57,0,7.85,1.27,10.66,3.29v-8.64c-3.41-2.02-7.25-3.01-11.17-3.01h0Zm-180.09,101.71h24.29v-5.03h-18.94v-37.92h-5.39l.04,42.95h0Zm32.97,0h5.39v-42.95h-5.39v42.95Zm53.02-42.95h-5.67l-14.15,36.93-14.26-36.93h-5.71l17.08,42.95h5.71l17-42.95Zm7.96,42.95h23.58v-4.95h-18.19v-14.54h16.84v-4.72h-16.84v-13.67h18.19v-5.03h-23.54v42.91h-.04Z" />
    <path class="cls-1"
        d="m78.77,38.41c3.96,1.31,6.85,5.03,6.85,9.47,0,5.51-4.48,9.95-9.95,9.95s-9.95-4.48-9.95-9.95c0-4.4,2.85-8.16,6.82-9.47v-14.58c-3.96-1.31-6.82-5.03-6.82-9.47,0-5.51,4.48-9.95,9.95-9.95s9.95,4.48,9.95,9.95c0,4.4-2.85,8.16-6.85,9.47v14.58h0Zm50.64,18.27l-12.64,7.29c.83,4.08-.95,8.44-4.79,10.66-4.75,2.73-10.86,1.11-13.59-3.65-2.73-4.75-1.11-10.86,3.65-13.63,3.8-2.22,8.48-1.58,11.61,1.19l12.64-7.29c-.83-4.08.95-8.44,4.79-10.66,4.75-2.73,10.86-1.11,13.63,3.65,2.73,4.75,1.11,10.86-3.65,13.63-3.84,2.22-8.52,1.62-11.65-1.19h0Zm-3.13,60.31l-12.64-7.29c-3.13,2.77-7.81,3.41-11.61,1.19-4.75-2.73-6.42-8.84-3.65-13.63,2.73-4.75,8.84-6.38,13.59-3.65,3.8,2.22,5.63,6.58,4.79,10.66l12.64,7.29c3.13-2.77,7.81-3.41,11.61-1.19,4.75,2.73,6.38,8.84,3.65,13.63-2.73,4.75-8.84,6.38-13.63,3.65-3.76-2.18-5.59-6.54-4.75-10.66h0Zm-53.77,27.46v-14.58c-3.96-1.31-6.82-5.03-6.82-9.47,0-5.51,4.48-9.95,9.95-9.95s9.95,4.48,9.95,9.95c0,4.4-2.85,8.16-6.85,9.47v14.58c3.96,1.31,6.85,5.07,6.85,9.47,0,5.51-4.48,9.95-9.95,9.99-5.51,0-9.95-4.48-9.95-9.99-.04-4.4,2.85-8.16,6.82-9.47h0Zm-50.68-32.85l12.64-7.29c-.83-4.08.95-8.44,4.79-10.66,4.75-2.73,10.86-1.11,13.59,3.65,2.77,4.75,1.11,10.86-3.65,13.63-3.8,2.22-8.48,1.58-11.61-1.19l-12.64,7.29c.83,4.08-.95,8.44-4.79,10.66-4.75,2.73-10.86,1.11-13.63-3.65-2.73-4.75-1.11-10.86,3.65-13.63,3.88-2.22,8.56-1.62,11.65,1.19h0Zm3.13-60.31l12.64,7.29c3.13-2.77,7.81-3.41,11.61-1.19,4.75,2.73,6.38,8.84,3.65,13.63-2.73,4.75-8.84,6.42-13.59,3.65-3.8-2.22-5.63-6.54-4.79-10.66l-12.64-7.29c-3.13,2.77-7.81,3.41-11.61,1.19-4.75-2.73-6.42-8.84-3.65-13.63,2.73-4.75,8.84-6.38,13.63-3.65,3.8,2.18,5.63,6.54,4.75,10.66h0Zm29.08,81.55c-2.73-4.75-8.84-6.38-13.63-3.65-4.75,2.73-6.38,8.84-3.65,13.63,2.73,4.75,8.84,6.38,13.63,3.65,4.75-2.77,6.42-8.88,3.65-13.63h0Zm-31.38-43.03c2.73-4.75,1.11-10.86-3.65-13.63-4.75-2.73-10.86-1.11-13.63,3.65-2.73,4.75-1.11,10.86,3.65,13.63,4.79,2.73,10.9,1.11,13.63-3.65h0Zm21.59-48.7c5.51,0,9.95-4.48,9.95-9.95s-4.48-9.95-9.95-9.95-9.99,4.4-9.99,9.91c0,5.51,4.48,9.99,9.99,9.99h0Zm52.98-5.67c2.73,4.75,8.84,6.38,13.63,3.65,4.75-2.77,6.38-8.84,3.65-13.63-2.73-4.75-8.84-6.38-13.59-3.65-4.83,2.77-6.46,8.88-3.69,13.63h0Zm31.38,43.03c-2.73,4.75-1.11,10.86,3.65,13.63,4.75,2.73,10.86,1.11,13.59-3.65,2.73-4.75,1.11-10.86-3.65-13.63-4.75-2.73-10.86-1.11-13.59,3.65h0Zm-21.6,48.7c-5.51,0-9.95,4.48-9.95,9.95s4.48,9.95,9.95,9.95,9.95-4.48,9.95-9.95-4.44-9.95-9.95-9.95h0Zm-31.38-53.02c5.51,0,9.95,4.48,9.95,9.95s-4.48,9.95-9.95,9.95-9.95-4.48-9.95-9.95c-.04-5.47,4.44-9.95,9.95-9.95Z" />
</svg>