<?xml version="1.0" standalone="no"?>
<!DOCTYPE svg PUBLIC "-//W3C//DTD SVG 20010904//EN"
 "http://www.w3.org/TR/2001/REC-SVG-20010904/DTD/svg10.dtd">
<svg version="1.0" xmlns="http://www.w3.org/2000/svg"
 width="108.000000pt" height="108.000000pt" viewBox="0 0 108.000000 108.000000"
 preserveAspectRatio="xMidYMid meet">
<metadata>
Created by potrace 1.11, written by Peter Selinger 2001-2013
</metadata>
<g transform="translate(0.000000,108.000000) scale(0.100000,-0.100000)"
fill="#000000" stroke="none">
<path d="M670 1033 c0 -17 -32 -25 -41 -11 -4 7 -11 9 -15 5 -4 -4 0 -15 9
-25 13 -14 14 -21 5 -30 -9 -9 -9 -12 0 -12 7 0 12 4 12 10 0 5 8 6 18 3 15
-6 15 -5 3 10 -7 9 -9 17 -3 17 11 0 25 30 17 38 -3 3 -5 1 -5 -5z"/>
<path d="M600 984 c0 -8 5 -12 10 -9 6 4 8 11 5 16 -9 14 -15 11 -15 -7z"/>
<path d="M578 967 c-4 -20 -2 -27 7 -24 6 3 12 -1 12 -8 0 -7 -7 -11 -16 -9
-9 2 -3 -2 14 -10 27 -13 30 -12 40 8 9 18 8 22 -14 26 -13 3 -27 14 -31 25
-6 17 -7 16 -12 -8z"/>
<path d="M576 891 c-3 -5 2 -8 12 -7 31 2 13 -46 -33 -91 -24 -24 -40 -43 -35
-43 5 0 26 18 47 40 38 41 54 74 45 98 -5 14 -28 16 -36 3z"/>
<path d="M411 876 c-7 -9 -11 -21 -8 -28 4 -8 6 -7 6 5 1 19 16 23 26 7 5 -8
11 -8 20 0 8 7 14 7 17 1 2 -6 13 -4 28 4 24 13 23 13 -19 9 -25 -2 -48 1 -51
6 -4 7 -11 6 -19 -4z"/>
<path d="M265 850 c-10 -11 -26 -22 -37 -26 -13 -4 -18 -12 -15 -25 3 -12 0
-19 -9 -19 -11 0 -13 -7 -8 -27 9 -40 19 -46 35 -26 13 16 12 17 -2 5 -15 -11
-17 -10 -15 13 1 27 44 96 64 103 17 5 15 -23 -3 -38 -22 -18 -19 -32 4 -18
12 7 18 21 17 39 -3 38 -10 43 -31 19z"/>
<path d="M395 820 c3 -5 11 -10 16 -10 6 0 7 5 4 10 -3 6 -11 10 -16 10 -6 0
-7 -4 -4 -10z"/>
<path d="M366 782 c-2 -4 4 -19 15 -32 10 -14 19 -20 19 -14 0 6 -7 18 -16 25
-14 12 -14 14 3 20 16 7 16 8 1 8 -9 1 -19 -3 -22 -7z"/>
<path d="M237 774 c-13 -13 -7 -24 12 -24 11 0 23 5 27 12 5 7 2 9 -9 5 -9 -3
-17 -1 -19 4 -2 6 -7 7 -11 3z"/>
<path d="M344 742 c-6 -4 -10 -20 -10 -37 0 -29 -21 -42 -35 -22 -3 4 -6 -6
-7 -22 0 -18 4 -31 11 -31 7 0 6 -4 -3 -10 -22 -14 -33 -12 -26 5 3 10 -3 17
-19 21 -19 5 -22 9 -12 19 9 10 16 10 27 2 9 -6 8 -3 -2 8 -17 19 -18 19 -32
0 -15 -21 -3 -51 15 -39 9 5 14 -16 11 -46 -1 -8 -3 -28 -4 -43 -1 -19 -11
-36 -30 -50 -15 -11 -28 -25 -28 -30 0 -6 8 -3 18 5 50 43 61 14 12 -32 l-31
-29 27 -24 c20 -19 25 -32 22 -51 -3 -14 -1 -26 3 -26 5 0 9 -17 9 -38 0 -21
6 -46 12 -55 17 -23 54 -29 68 -11 10 11 7 16 -14 24 -23 8 -26 15 -26 59 0
27 5 53 10 56 6 4 8 15 5 26 -4 13 -2 19 8 19 8 0 18 7 21 16 10 27 7 27 -19
2 -17 -17 -23 -32 -19 -44 5 -18 5 -18 -10 0 -12 15 -13 23 -4 33 10 12 7 13
-18 8 l-29 -6 24 20 c12 12 28 18 35 14 6 -4 6 0 -2 9 -9 11 -10 18 -2 23 6 3
7 11 4 17 -4 6 1 6 14 -1 12 -6 25 -19 30 -27 6 -11 11 -13 16 -5 4 6 4 11 0
11 -3 0 -1 7 6 15 6 8 10 18 7 22 -3 4 1 14 9 21 8 7 15 10 15 7 6 -23 3 -32
-15 -48 -17 -16 -18 -18 -3 -13 26 8 21 -19 -8 -38 -30 -20 -32 -33 -5 -41 11
-4 19 -12 18 -18 -1 -7 3 -22 10 -34 7 -12 8 -24 3 -27 -12 -8 9 -76 23 -76 5
0 -3 -14 -19 -30 -16 -17 -23 -30 -17 -30 7 0 12 -3 11 -7 -2 -16 14 -53 22
-53 14 0 11 16 -6 30 -11 9 -12 16 -5 25 5 6 7 15 3 18 -11 12 20 38 41 35 27
-4 34 28 8 34 -15 4 -20 15 -20 45 0 21 -2 46 -4 54 -2 9 4 13 15 11 27 -5 20
4 -18 22 l-36 17 21 26 c14 18 20 41 20 73 0 45 18 79 33 63 4 -3 7 1 7 10 0
9 -3 18 -7 20 -14 8 -53 -12 -60 -30 -4 -10 -17 -26 -29 -36 -13 -10 -26 -27
-29 -38 -5 -16 -10 -18 -18 -10 -14 14 -15 44 -2 53 6 5 5 12 -4 20 -9 8 -11
9 -7 1 3 -6 2 -14 -3 -18 -6 -3 -8 -12 -4 -20 3 -8 0 -15 -6 -15 -6 0 -11 16
-11 35 0 37 28 62 57 51 13 -5 14 -4 4 8 -7 8 -8 16 -3 18 5 1 1 12 -9 22 -19
19 -19 19 -19 0 0 -16 -2 -17 -10 -4 -14 22 -12 28 10 35 15 5 19 12 14 31 -4
17 -1 26 10 30 9 3 16 10 16 15 0 11 -11 11 -26 1z"/>
<path d="M490 740 c0 -6 7 -10 15 -10 8 0 15 2 15 4 0 2 -7 6 -15 10 -8 3 -15
1 -15 -4z"/>
<path d="M516 705 c-9 -19 -24 -35 -33 -35 -9 0 -14 -3 -10 -6 10 -10 47 7 47
21 0 7 7 20 15 29 8 8 11 17 6 20 -5 3 -16 -10 -25 -29z"/>
<path d="M174 721 c3 -5 -1 -12 -10 -15 -9 -4 -12 -11 -7 -18 4 -7 8 -22 8
-32 0 -11 6 -21 14 -24 8 -3 11 0 7 6 -4 7 -2 20 3 30 11 21 4 62 -11 62 -5 0
-7 -4 -4 -9z m16 -25 c0 -11 -19 -15 -25 -6 -3 5 1 10 9 10 9 0 16 -2 16 -4z"/>
<path d="M555 700 c-16 -11 -25 -20 -20 -20 6 1 19 7 29 15 10 8 23 12 29 8 6
-3 7 -1 3 5 -9 15 -5 16 -41 -8z"/>
<path d="M620 710 c-12 -7 -10 -9 7 -7 12 0 19 5 17 9 -6 10 -6 10 -24 -2z"/>
<path d="M270 699 c0 -5 5 -7 10 -4 6 3 10 8 10 11 0 2 -4 4 -10 4 -5 0 -10
-5 -10 -11z"/>
<path d="M480 695 c-8 -9 -8 -15 -2 -15 12 0 26 19 19 26 -2 2 -10 -2 -17 -11z"/>
<path d="M736 697 c3 -10 9 -15 12 -12 3 3 0 11 -7 18 -10 9 -11 8 -5 -6z"/>
<path d="M130 680 c0 -5 5 -10 11 -10 5 0 7 5 4 10 -3 6 -8 10 -11 10 -2 0 -4
-4 -4 -10z"/>
<path d="M350 651 c0 -5 5 -13 10 -16 6 -3 10 -2 10 4 0 5 -4 13 -10 16 -5 3
-10 2 -10 -4z"/>
<path d="M736 644 c-23 -23 -20 -30 4 -9 11 10 20 20 20 22 0 7 -9 2 -24 -13z"/>
<path d="M763 623 c-21 -8 -15 -23 12 -33 20 -8 25 -17 26 -47 2 -73 8 -96 30
-119 12 -13 17 -24 11 -24 -19 0 -36 -42 -38 -95 -1 -27 -3 -53 -3 -58 -1 -4
-13 -12 -27 -17 -33 -13 -25 -36 12 -33 38 3 54 27 55 82 1 68 5 82 34 109
l27 25 -26 21 c-26 21 -34 44 -36 116 -1 52 -39 88 -77 73z"/>
<path d="M148 579 c-9 -21 -13 -39 -8 -39 5 0 12 9 15 20 3 11 11 20 16 20 11
0 12 27 1 33 -4 3 -15 -12 -24 -34z"/>
<path d="M712 585 c-7 -14 -12 -31 -12 -38 1 -7 7 3 16 22 17 39 13 54 -4 16z"/>
<path d="M610 581 c0 -6 8 -15 19 -20 27 -15 32 -57 10 -82 -9 -11 -20 -20
-23 -19 -14 3 -30 -8 -23 -16 4 -5 11 -4 15 2 4 6 15 10 25 8 10 -1 14 2 11 8
-5 7 -2 8 5 4 7 -5 10 -11 7 -14 -4 -3 3 -15 14 -27 18 -20 19 -23 5 -35 -12
-10 -15 -10 -15 0 0 9 -5 8 -18 -3 -10 -10 -22 -14 -27 -10 -4 5 -5 2 0 -5 5
-10 10 -11 18 -3 19 19 25 12 21 -31 -1 -24 -3 -51 -3 -61 -1 -11 -10 -21 -21
-24 -27 -7 -25 -31 3 -35 20 -3 19 -5 -13 -27 -28 -18 -30 -21 -10 -16 14 4
25 8 25 9 0 0 11 14 25 29 22 26 26 40 29 120 1 15 10 35 21 44 25 22 26 49 1
56 -20 5 -31 43 -21 73 11 29 -21 78 -53 82 -15 2 -27 -1 -27 -7z"/>
<path d="M335 570 c3 -5 8 -10 11 -10 2 0 4 5 4 10 0 6 -5 10 -11 10 -5 0 -7
-4 -4 -10z"/>
<path d="M528 445 l4 -37 -31 16 c-29 15 -32 15 -38 0 -7 -18 12 -34 40 -34
22 0 22 -6 -3 -33 -19 -20 -20 -22 -4 -34 15 -11 19 -9 28 9 16 31 31 32 45 2
9 -22 14 -24 26 -14 14 11 14 15 0 36 -17 26 -19 38 -6 30 5 -3 20 3 33 14 14
11 28 17 32 15 3 -3 4 -2 1 2 -10 13 -54 14 -76 3 -19 -11 -20 -9 -17 22 2 27
-1 34 -18 36 -18 3 -20 -1 -16 -33z"/>
<path d="M327 453 c-4 -3 -7 -11 -7 -17 0 -6 5 -5 12 2 6 6 9 14 7 17 -3 3 -9
2 -12 -2z"/>
<path d="M331 378 c-2 -16 23 -57 30 -52 13 8 11 -10 -3 -24 -9 -9 -9 -12 0
-12 7 0 12 -7 12 -15 0 -8 5 -15 10 -15 7 0 7 7 -1 21 -9 17 -8 23 2 30 9 6
10 12 4 17 -5 4 -12 16 -13 27 -2 11 -6 22 -9 25 -3 3 -3 -5 0 -17 3 -13 2
-23 -2 -23 -5 0 -13 10 -19 23 -6 12 -11 19 -11 15z"/>
<path d="M723 355 c4 -5 0 -17 -10 -27 -9 -10 -14 -20 -12 -22 2 -2 12 6 22
19 13 18 14 25 5 31 -7 4 -10 3 -5 -1z"/>
<path d="M326 322 c-2 -4 -1 -14 5 -22 7 -12 9 -10 9 8 0 23 -5 28 -14 14z"/>
<path d="M343 255 c0 -8 4 -12 9 -9 5 3 6 10 3 15 -9 13 -12 11 -12 -6z"/>
<path d="M444 139 c22 -17 30 -19 39 -9 7 8 8 11 1 7 -6 -4 -20 0 -30 8 -30
23 -39 17 -10 -6z"/>
<path d="M480 152 c8 -3 18 -9 21 -13 3 -5 13 -3 22 4 15 10 12 12 -20 13 -21
1 -31 -1 -23 -4z"/>
<path d="M160 76 c-4 -4 -6 -15 -3 -22 4 -12 73 -14 395 -14 l389 0 -3 23 -3
22 -383 0 c-211 0 -387 -4 -392 -9z"/>
</g>
</svg>
